# xmcd
#
# Track frame offsets: 
#        150
#        22910
#        49275
#        63171
#        87157
#        121348
#        130580
#        153454
#        164653
#
# Disc length: 2504 seconds
#
# Revision: 0
# Processed by: cddbd v1.5.2PL0 Copyright (c) Steve Scherf et al.
# Submitted via: ExactAudioCopy v0.99pb3
#
DISCID=6d09c609
DTITLE=For Against - Never Been
DYEAR=2009
DGENRE=Words On Music
TTITLE0=Sameness
TTITLE1=Different Departures
TTITLE2=Black Willows
TTITLE3=Antidote
TTITLE4=Of A Time
TTITLE5=Per Se
TTITLE6=Specificity
TTITLE7=The Tenebrists
TTITLE8=You Fade
EXTD=
EXTT0=
EXTT1=
EXTT2=
EXTT3=
EXTT4=
EXTT5=
EXTT6=
EXTT7=
EXTT8=
PLAYORDER=
